<svg xmlns="http://www.w3.org/2000/svg" width="256" height="256" viewBox="0 0 100 100"><rect width="100" height="100" rx="50" fill="#394458"></rect><path fill="#e1c077" d="M62.21 64.06L62.21 64.06Q62.21 66.41 61.19 68.11Q60.18 69.80 58.57 70.90L58.57 70.90Q56.97 72.03 54.92 72.56Q52.87 73.09 50.76 73.09L50.76 73.09Q48.11 73.09 45.86 72.36Q43.61 71.64 41.89 70.20L41.89 70.20Q40.18 68.79 39.08 66.74Q37.99 64.69 37.64 62.03L37.64 62.03L30.25 62.03Q30.37 65.70 31.88 68.69Q33.38 71.68 35.96 73.91L35.96 73.91Q38.85 76.48 42.77 77.85Q46.70 79.22 50.76 79.22L50.76 79.22Q54.16 79.22 57.56 78.26Q60.96 77.30 63.65 75.39L63.65 75.39Q66.35 73.52 68.05 70.66Q69.75 67.81 69.75 63.98L69.75 63.98Q69.75 60.20 68.16 57.30Q66.58 54.41 64.00 52.42L64.00 52.42Q61.39 50.27 58.22 48.89Q55.06 47.50 51.89 46.52L51.89 46.52Q49.98 45.94 47.81 45.16Q45.64 44.38 43.81 43.20L43.81 43.20Q41.93 42.03 40.72 40.33Q39.51 38.63 39.47 36.17L39.47 36.17Q39.47 33.91 40.39 32.19Q41.31 30.47 42.87 29.30L42.87 29.30Q44.39 28.13 46.37 27.54Q48.34 26.95 50.41 26.95L50.41 26.95Q52.99 26.95 55.04 27.75Q57.09 28.55 58.57 30L58.57 30Q60.06 31.45 60.96 33.46Q61.86 35.47 62.17 37.93L62.17 37.93L69.59 37.93Q69.51 34.02 67.91 30.86Q66.31 27.70 63.65 25.47L63.65 25.47Q61.00 23.24 57.56 22.01Q54.12 20.78 50.41 20.78L50.41 20.78Q47.05 20.78 43.73 21.82Q40.41 22.85 37.79 24.84L37.79 24.84Q35.18 26.84 33.55 29.73Q31.93 32.62 31.93 36.29L31.93 36.29Q31.93 39.96 33.55 42.68Q35.18 45.39 37.75 47.38L37.75 47.38Q40.29 49.34 43.40 50.72Q46.50 52.11 49.51 53.09L49.51 53.09Q51.58 53.75 53.83 54.57Q56.07 55.39 57.95 56.60L57.95 56.60Q59.82 57.85 61.02 59.65Q62.21 61.45 62.21 64.06Z"></path></svg>